# xmcd CD database file
#
# Track frame offsets:
#	183
#	49105
#	85825
#	109143
#	152995
#	206353
#	230568
#
# Disc length: 3652 seconds
#
# Revision: 8
# Processed by: cddbd v1.5.1PL0 Copyright (c) Steve Scherf et al.
# Submitted via: CDex 1.51
#
DISCID=550e4207
DTITLE=Les Génies du Jazz - VI 13 - Herbie Hanckok (Out Of This World)
DYEAR=1900
DGENRE=Jazz
TTITLE0=Byrd House
TTITLE1=Mr. Lucky
TTITLE2=Day Dreams
TTITLE3=I'm An Old Cowhand
TTITLE4=Curro's
TTITLE5=It's A Beautiful Evening
TTITLE6=Out Of This World
EXTD=
EXTT0=
EXTT1=
EXTT2=
EXTT3=
EXTT4=
EXTT5=
EXTT6=
PLAYORDER=
